<svg width="80" height="80" viewBox="0 0 80 80" fill="none" xmlns="http://www.w3.org/2000/svg">
<rect x="80" y="40" width="56.5685" height="56.5685" rx="15" transform="rotate(135 80 40)" fill="url(#paint0_linear_1393_2200)"/>
<path d="M63.5616 23.5701L60.1111 32.7869L54.9591 46.5509C54.8874 46.7526 54.8156 46.9426 54.74 47.1287V47.1366C54.198 48.4741 53.4967 49.5506 52.6281 50.3657C51.6281 51.2998 50.1777 51.7666 48.2691 51.7666C48.0818 51.7666 47.8986 51.7628 47.7192 51.7549C45.8864 51.6639 44.4878 51.1019 43.5316 50.073C42.4797 48.9451 41.9537 47.461 41.9537 45.6209V28.9325C41.9537 28.4615 41.8182 28.0776 41.5512 27.7848C41.2842 27.4919 40.9416 27.3455 40.5193 27.3455C39.7343 27.3455 39.2004 27.7373 38.9215 28.5168L32.0163 46.5389C31.4545 48.1576 30.6735 49.4318 29.6774 50.3657C28.6813 51.2998 27.2309 51.7666 25.3223 51.7666C24.8601 51.7666 24.4258 51.739 24.0154 51.6835C22.5492 51.4936 21.4056 50.9554 20.5848 50.073C19.5289 48.9451 19.0029 47.461 19.0029 45.6209V20.705L24.0154 15.7265V45.3675C24.0154 45.8702 24.1509 46.2659 24.4138 46.5627C24.6848 46.8516 25.0235 46.998 25.4459 46.998C25.8124 46.998 26.1272 46.8871 26.3942 46.6657C26.6611 46.44 26.8644 46.1511 27.0038 45.7871L33.9089 27.765C34.4707 26.1464 35.2557 24.8682 36.2678 23.9382C37.2798 23.0043 38.7382 22.5372 40.6467 22.5372C42.7506 22.5372 44.3245 23.0991 45.3644 24.2309C46.4004 25.3588 46.9223 26.8587 46.9223 28.7267V45.3675C46.9223 45.8702 47.0618 46.2659 47.3407 46.5627C47.6236 46.8516 47.9743 46.998 48.3926 46.998C48.7871 46.998 49.1098 46.8871 49.3609 46.6657C49.6158 46.44 49.8111 46.1511 49.9506 45.7871L58.4575 23.0359L59.6966 19.7274L63.5616 23.5701Z" fill="white"/>
<defs>
<linearGradient id="paint0_linear_1393_2200" x1="135.035" y1="41.0108" x2="79.6005" y2="96.3984" gradientUnits="userSpaceOnUse">
<stop stop-color="#03B39C"/>
<stop offset="1" stop-color="#746DF9"/>
</linearGradient>
</defs>
</svg>
