<svg width="39" height="38" viewBox="0 0 39 38" fill="none" xmlns="http://www.w3.org/2000/svg">
<rect x="0.75" width="37.5" height="37.5" rx="18.75" fill="#263238"/>
<g clip-path="url(#clip0_332_217)">
<path d="M19.5 18.75C19.5 17.8052 19.8753 16.899 20.5434 16.2309C21.2115 15.5628 22.1177 15.1875 23.0625 15.1875C24.0073 15.1875 24.9135 15.5628 25.5816 16.2309C26.2497 16.899 26.625 17.8052 26.625 18.75C26.625 19.6948 26.2497 20.601 25.5816 21.2691C24.9135 21.9372 24.0073 22.3125 23.0625 22.3125C22.1177 22.3125 21.2115 21.9372 20.5434 21.2691C19.8753 20.601 19.5 19.6948 19.5 18.75V18.75Z" fill="#1ABCFE"/>
<path d="M12.375 25.875C12.375 24.9302 12.7503 24.024 13.4184 23.3559C14.0865 22.6878 14.9927 22.3125 15.9375 22.3125H19.5V25.875C19.5 26.8198 19.1247 27.726 18.4566 28.3941C17.7885 29.0622 16.8823 29.4375 15.9375 29.4375C14.9927 29.4375 14.0865 29.0622 13.4184 28.3941C12.7503 27.726 12.375 26.8198 12.375 25.875V25.875Z" fill="#0ACF83"/>
<path d="M19.5 8.0625V15.1875H23.0625C24.0073 15.1875 24.9135 14.8122 25.5816 14.1441C26.2497 13.476 26.625 12.5698 26.625 11.625C26.625 10.6802 26.2497 9.77403 25.5816 9.10593C24.9135 8.43783 24.0073 8.0625 23.0625 8.0625H19.5Z" fill="#FF7262"/>
<path d="M12.375 11.625C12.375 12.5698 12.7503 13.476 13.4184 14.1441C14.0865 14.8122 14.9927 15.1875 15.9375 15.1875H19.5V8.0625H15.9375C14.9927 8.0625 14.0865 8.43783 13.4184 9.10593C12.7503 9.77403 12.375 10.6802 12.375 11.625V11.625Z" fill="#F24E1E"/>
<path d="M12.375 18.75C12.375 19.6948 12.7503 20.601 13.4184 21.2691C14.0865 21.9372 14.9927 22.3125 15.9375 22.3125H19.5V15.1875H15.9375C14.9927 15.1875 14.0865 15.5628 13.4184 16.2309C12.7503 16.899 12.375 17.8052 12.375 18.75V18.75Z" fill="#A259FF"/>
</g>
<defs>
<clipPath id="clip0_332_217">
<rect width="14.25" height="21.375" fill="white" transform="translate(12.375 8.0625)"/>
</clipPath>
</defs>
</svg>
