<svg width="64" height="68" viewBox="0 0 64 68" fill="none" xmlns="http://www.w3.org/2000/svg">
<path fill-rule="evenodd" clip-rule="evenodd" d="M40.7859 0.00767239C46.9976 -0.124298 53.1268 1.44843 58.5075 4.55501L52.2246 15.4374C56.3481 20.4997 58.8204 26.9604 58.8204 33.9986C58.8204 39.6917 57.2028 45.007 54.4021 49.5099L63.2422 60.144C58.4644 64.1158 52.6895 66.7024 46.5449 67.6229C40.4003 68.5434 34.1209 67.7625 28.389 65.365C26.6675 64.645 25.0151 63.7874 23.4465 62.8038C10.063 60.0474 0 48.1982 0 33.9986C0 19.7984 10.0639 7.94875 23.4484 5.19305C28.6519 1.93077 34.6431 0.138177 40.7859 0.00767239Z" fill="#2C3E50"/>
</svg>
